<svg width="30" height="30" viewBox="0 0 30 30" fill="none" xmlns="http://www.w3.org/2000/svg">
<rect width="30" height="30" rx="12" fill="#D86D25"/>
<path d="M8.29289 20.2929C7.90237 20.6834 7.90237 21.3166 8.29289 21.7071C8.68342 22.0976 9.31658 22.0976 9.70711 21.7071L8.29289 20.2929ZM22 9C22 8.44771 21.5523 8 21 8L12 8C11.4477 8 11 8.44771 11 9C11 9.55228 11.4477 10 12 10H20V18C20 18.5523 20.4477 19 21 19C21.5523 19 22 18.5523 22 18L22 9ZM9 21L9.70711 21.7071L21.7071 9.70711L21 9L20.2929 8.29289L8.29289 20.2929L9 21Z" fill="white"/>
</svg>
