<svg width="30" height="30" viewBox="0 0 30 30" fill="none" xmlns="http://www.w3.org/2000/svg">
<rect width="30" height="30" rx="5" fill="#B24C63"/>
<path d="M6.29289 21.7929C5.90237 22.1834 5.90237 22.8166 6.29289 23.2071C6.68342 23.5976 7.31658 23.5976 7.70711 23.2071L6.29289 21.7929ZM23 7.5C23 6.94772 22.5523 6.5 22 6.5L13 6.5C12.4477 6.5 12 6.94772 12 7.5C12 8.05228 12.4477 8.5 13 8.5L21 8.5L21 16.5C21 17.0523 21.4477 17.5 22 17.5C22.5523 17.5 23 17.0523 23 16.5L23 7.5ZM7.70711 23.2071L22.7071 8.20711L21.2929 6.79289L6.29289 21.7929L7.70711 23.2071Z" fill="white"/>
</svg>
