<?xml version="1.0" encoding="UTF-8"?>
<svg id="Calque_2" data-name="Calque 2" xmlns="http://www.w3.org/2000/svg" xmlns:xlink="http://www.w3.org/1999/xlink" viewBox="0 0 1440 810">
  <defs>
    <style>
      .cls-1 {
        fill: none;
      }

      .cls-2 {
        fill: #87c38f;
      }

      .cls-3 {
        fill: #226f54;
      }

      .cls-4 {
        fill: #f4f0bb;
      }

      .cls-5 {
        fill: #391d12;
        font-family: Nunito-SemiBold, Nunito;
        font-size: 147.94px;
        font-variation-settings: 'wght' 600;
        font-weight: 600;
      }

      .cls-6 {
        clip-path: url(#clippath-15);
      }

      .cls-7 {
        clip-path: url(#clippath-12);
      }

      .cls-8 {
        clip-path: url(#clippath-3);
      }

      .cls-9 {
        clip-path: url(#clippath-6);
      }

      .cls-10 {
        clip-path: url(#clippath-9);
      }

      .cls-11 {
        fill: #fffef2;
      }

      .cls-12 {
        clip-path: url(#clippath);
      }
    </style>
    <clipPath id="clippath">
      <path class="cls-1" d="M389.74,560.08s20.44-41.49,53.44-62.3c14.71-9.28,34.31-16.1,56.27-13.55,14.38,1.67,16.09,5.32,10.89,18.82-8.21,21.3-24.35,34.15-39.92,41.91-36.86,18.37-80.68,15.13-80.68,15.13Z"/>
    </clipPath>
    <clipPath id="clippath-3">
      <path class="cls-1" d="M271.61,416.16s48.71-3.21,85.16,15.97c16.25,8.55,32.83,22.87,42.08,44.29,6.06,14.03,3.63,17.52-11.45,19.89-23.81,3.74-44.07-4.24-59.38-14.38-36.25-24-56.41-65.77-56.41-65.77Z"/>
    </clipPath>
    <clipPath id="clippath-6">
      <path class="cls-1" d="M340.97,239.55s28.57,42.72,30.26,86.04c.76,19.32-3.57,41.96-18.23,61.67-9.6,12.91-14.06,12.53-24.16.03-15.94-19.74-19.33-42.4-18.15-61.7,2.8-45.68,30.26-86.04,30.26-86.04Z"/>
    </clipPath>
    <clipPath id="clippath-9">
      <path class="cls-1" d="M511.34,225.93s-17.03,34.57-44.53,51.92c-12.26,7.74-28.59,13.42-46.89,11.29-11.99-1.39-13.41-4.43-9.07-15.68,6.84-17.75,20.29-28.46,33.27-34.92,30.72-15.31,67.23-12.61,67.23-12.61Z"/>
    </clipPath>
    <clipPath id="clippath-12">
      <path class="cls-1" d="M629.46,357.11s-41.02,2.7-71.71-13.45c-13.69-7.2-27.64-19.26-35.44-37.3-5.11-11.82-3.06-14.75,9.64-16.75,20.05-3.15,37.11,3.57,50,12.11,30.53,20.21,47.5,55.38,47.5,55.38Z"/>
    </clipPath>
    <clipPath id="clippath-15">
      <path class="cls-1" d="M570.4,528.31s-24.28-36.31-25.72-73.13c-.64-16.42,3.04-35.67,15.49-52.42,8.16-10.98,11.95-10.65,20.53-.02,13.55,16.78,16.43,36.04,15.42,52.44-2.38,38.83-25.72,73.13-25.72,73.13Z"/>
    </clipPath>
  </defs>
  <g id="Calque_1-2" data-name="Calque 1">
    <g>
      <rect class="cls-11" width="1440" height="810"/>
      <g>
        <g class="cls-12">
          <path class="cls-2" d="M389.74,560.08s20.44-41.49,53.44-62.3c14.71-9.28,34.31-16.1,56.27-13.55,14.38,1.67,16.09,5.32,10.89,18.82-8.21,21.3-24.35,34.15-39.92,41.91-36.86,18.37-80.68,15.13-80.68,15.13Z"/>
          <path class="cls-4" d="M553.64,466.67s-16.3,16.93-32.85,17.81c-14.52.77-85.29,49.24-85.29,49.24,0,0,42.7,2.31,65.27-20.33,15.31-15.36,18.89-33.64,18.89-33.64l55.24-6.96-21.27-6.13Z"/>
          <polygon class="cls-3" points="382.34 564.42 532.44 477.76 382.38 451.29 382.34 564.42"/>
        </g>
        <g class="cls-8">
          <path class="cls-2" d="M271.61,416.16s48.71-3.21,85.16,15.97c16.25,8.55,32.83,22.87,42.08,44.29,6.06,14.03,3.63,17.52-11.45,19.89-23.81,3.74-44.07-4.24-59.38-14.38-36.25-24-56.41-65.77-56.41-65.77Z"/>
          <path class="cls-4" d="M443.5,516.69s-24.08-5.96-33.62-20.63c-8.37-12.87-90.03-51.98-90.03-51.98,0,0,20.43,40.26,53.04,48.94,22.12,5.89,40.72-.48,40.72-.48l35.51,46.83-5.62-22.68Z"/>
          <polygon class="cls-3" points="263.74 411.69 422.17 503.16 367.17 352.02 263.74 411.69"/>
        </g>
        <g class="cls-9">
          <path class="cls-2" d="M340.97,239.55s28.57,42.72,30.26,86.04c.76,19.32-3.57,41.96-18.23,61.67-9.6,12.91-14.06,12.53-24.16.03-15.94-19.74-19.33-42.4-18.15-61.7,2.8-45.68,30.26-86.04,30.26-86.04Z"/>
          <path class="cls-4" d="M339.79,449.16s-7.24-25.09,1.11-41.5c7.32-14.4,0-109.43,0-109.43,0,0-25.95,39.81-16.7,74.11,6.27,23.27,21.87,36.86,21.87,36.86l-24,57.02,17.72-17.06Z"/>
          <polygon class="cls-3" points="340.9 230.02 340.9 422.6 449.73 292.91 340.9 230.02"/>
        </g>
        <g class="cls-10">
          <path class="cls-2" d="M511.34,225.93s-17.03,34.57-44.53,51.92c-12.26,7.74-28.59,13.42-46.89,11.29-11.99-1.39-13.41-4.43-9.07-15.68,6.84-17.75,20.29-28.46,33.27-34.92,30.72-15.31,67.23-12.61,67.23-12.61Z"/>
          <path class="cls-4" d="M374.75,303.77s13.58-14.11,27.37-14.84c12.1-.64,71.07-41.04,71.07-41.04,0,0-35.59-1.92-54.4,16.94-12.76,12.8-15.74,28.03-15.74,28.03l-46.03,5.8,17.72,5.11Z"/>
          <polygon class="cls-3" points="517.51 222.31 392.42 294.53 517.47 316.58 517.51 222.31"/>
        </g>
        <g class="cls-7">
          <path class="cls-2" d="M629.46,357.11s-41.02,2.7-71.71-13.45c-13.69-7.2-27.64-19.26-35.44-37.3-5.11-11.82-3.06-14.75,9.64-16.75,20.05-3.15,37.11,3.57,50,12.11,30.53,20.21,47.5,55.38,47.5,55.38Z"/>
          <path class="cls-4" d="M484.7,272.45s20.28,5.02,28.31,17.37c7.05,10.84,75.81,43.77,75.81,43.77,0,0-17.2-33.9-44.66-41.21-18.63-4.96-34.29.41-34.29.41l-29.91-39.43,4.73,19.1Z"/>
          <polygon class="cls-3" points="636.08 360.88 502.66 283.85 548.98 411.13 636.08 360.88"/>
        </g>
        <g class="cls-6">
          <path class="cls-2" d="M570.4,528.31s-24.28-36.31-25.72-73.13c-.64-16.42,3.04-35.67,15.49-52.42,8.16-10.98,11.95-10.65,20.53-.02,13.55,16.78,16.43,36.04,15.42,52.44-2.38,38.83-25.72,73.13-25.72,73.13Z"/>
          <path class="cls-4" d="M571.4,350.14s6.15,21.32-.94,35.28c-6.23,12.24,0,93.01,0,93.01,0,0,22.05-33.84,14.2-62.99-5.33-19.78-18.59-31.33-18.59-31.33l20.4-48.47-15.06,14.5Z"/>
          <polygon class="cls-3" points="570.45 536.41 570.45 372.72 477.94 482.96 570.45 536.41"/>
        </g>
      </g>
      <text class="cls-5" transform="translate(720 456.6)"><tspan x="0" y="0">ESOLY</tspan></text>
    </g>
  </g>
</svg>