<?xml version="1.0" encoding="UTF-8"?>
<svg id="Calque_2" data-name="Calque 2" xmlns="http://www.w3.org/2000/svg" viewBox="0 0 315.02 308.2">
  <defs>
    <style>
      .cls-1 {
        fill: #e4ff5b;
      }
    </style>
  </defs>
  <g id="Calque_1-2" data-name="Calque 1">
    <path class="cls-1" d="M173.49,7.12l26.06,28.96c7.56,8.41,18.14,13.5,29.42,14.17l38.89,2.31c12.74.76,22.02,12.39,19.93,24.99l-6.4,38.43c-1.86,11.16.75,22.59,7.27,31.84l22.44,31.85c7.35,10.44,4.04,24.94-7.11,31.16l-34.03,18.96c-9.88,5.5-17.2,14.68-20.36,25.53l-10.91,37.4c-3.58,12.26-16.98,18.71-28.79,13.87l-36.04-14.79c-10.46-4.29-22.2-4.29-32.66,0l-36.04,14.79c-11.81,4.85-25.22-1.61-28.79-13.87l-10.91-37.4c-3.17-10.86-10.48-20.03-20.36-25.53l-34.03-18.96c-11.15-6.21-14.46-20.72-7.11-31.16l22.44-31.85c6.51-9.25,9.12-20.68,7.27-31.84l-6.4-38.43c-2.1-12.59,7.18-24.23,19.93-24.99l38.89-2.31c11.29-.67,21.86-5.76,29.42-14.17l26.06-28.96c8.54-9.49,23.42-9.49,31.96,0Z"/>
  </g>
</svg>